<svg xmlns="http://www.w3.org/2000/svg" width="156.029" height="38.496" viewBox="0 0 156.029 38.496"><path d="M29.935 6.778c.308.195.667.308 1.155.308.646 0 1.178-.33 1.178-1.073 0-1.028-2.4-1.156-2.4-2.53 0-.84.734-1.365 1.658-1.365.255 0 .667.038 1.028.172l-.083.473c-.23-.128-.6-.195-.952-.195-.54 0-1.133.225-1.133.9 0 1.05 2.4 1.058 2.4 2.59 0 1.057-.907 1.477-1.717 1.477-.51 0-.908-.105-1.186-.225l.053-.532zM36.853 4.13c-.255-.113-.563-.196-.818-.196-.923 0-1.44.668-1.44 1.598 0 .87.524 1.6 1.387 1.6.3 0 .578-.07.863-.174l.045.443c-.323.113-.623.136-.983.136-1.23 0-1.83-.938-1.83-2.003 0-1.178.757-2.003 1.89-2.003.458 0 .788.105.923.15l-.037.45zM38.278 1.818h.473v2.446h.016c.203-.42.63-.735 1.193-.735 1.027 0 1.305.682 1.305 1.627v2.29h-.473V5.164c0-.66-.127-1.23-.908-1.23-.84 0-1.133.795-1.133 1.463v2.048h-.472V1.818zM46.968 7.446h-.57l-1.043-3.31h-.015l-1.043 3.31h-.57l-1.23-3.827h.518l1.005 3.31h.015L45.1 3.62h.57l1.013 3.31h.015l1.058-3.31h.473l-1.262 3.826zM52.025 7.326c-.33.135-.758.21-1.11.21-1.27 0-1.742-.855-1.742-2.003 0-1.17.646-2.003 1.613-2.003 1.08 0 1.523.87 1.523 1.898v.24h-2.62c0 .81.436 1.463 1.26 1.463.346 0 .85-.142 1.074-.284v.48zm-.233-2.063c0-.668-.27-1.328-.975-1.328-.698 0-1.126.698-1.126 1.328h2.102zM54.27 2.6h-.474v-.63h.473v.63zm-.474 1.02h.473v3.826h-.474V3.62zM55.695 7.05L58 4.024h-2.215V3.62h2.76v.404L56.244 7.04h2.303v.406h-2.85V7.05zM62.53 7.326c-.33.135-.758.21-1.11.21-1.27 0-1.742-.855-1.742-2.003 0-1.17.646-2.003 1.613-2.003 1.082 0 1.524.87 1.524 1.898v.24h-2.62c0 .81.437 1.463 1.262 1.463.345 0 .848-.142 1.073-.284v.48zm-.233-2.063c0-.668-.27-1.328-.975-1.328-.698 0-1.126.698-1.126 1.328h2.1zM64.3 4.475c0-.42 0-.578-.03-.855h.474v.735h.015c.172-.427.495-.825.982-.825.112 0 .248.022.33.045v.495c-.098-.03-.225-.045-.345-.045-.75 0-.953.84-.953 1.53v1.892H64.3V4.475zM67.858 2.6h-.473v-.63h.473v.63zm-.473 1.02h.473v3.826h-.473V3.62zM69.344 6.89c.285.144.63.24.998.24.45 0 .848-.247.848-.682 0-.908-1.838-.765-1.838-1.876 0-.758.615-1.043 1.246-1.043.203 0 .608.044.945.172l-.045.413c-.248-.113-.585-.18-.848-.18-.488 0-.826.15-.826.638 0 .713 1.883.623 1.883 1.876 0 .81-.758 1.087-1.335 1.087-.368 0-.735-.045-1.073-.18l.044-.466zM75.63 4.13c-.254-.113-.562-.196-.817-.196-.923 0-1.44.668-1.44 1.598 0 .87.524 1.6 1.387 1.6.3 0 .578-.07.863-.174l.045.443c-.323.113-.623.136-.983.136-1.23 0-1.83-.938-1.83-2.003 0-1.178.757-2.003 1.89-2.003.458 0 .788.105.923.15l-.037.45zM77.057 1.818h.473v2.446h.015c.203-.42.63-.735 1.193-.735 1.028 0 1.306.682 1.306 1.627v2.29h-.473V5.164c0-.66-.126-1.23-.907-1.23-.84 0-1.133.795-1.133 1.463v2.048h-.473V1.818zM84.38 7.326c-.33.135-.757.21-1.11.21-1.268 0-1.74-.855-1.74-2.003 0-1.17.645-2.003 1.612-2.003 1.08 0 1.523.87 1.523 1.898v.24h-2.62c0 .81.437 1.463 1.262 1.463.345 0 .848-.142 1.073-.284v.48zm-.232-2.063c0-.668-.27-1.328-.975-1.328-.698 0-1.126.698-1.126 1.328h2.1zM88.65 2.208h2.566v.45h-2.048v1.87h1.943v.45H89.17v2.018h2.14v.45H88.65V2.208zM93.408 2.6h-.473v-.63h.473v.63zm-.473 1.02h.473v3.826h-.473V3.62zM98.218 7.446h-.473v-.608h-.015c-.255.488-.646.698-1.193.698-1.05 0-1.576-.87-1.576-2.003 0-1.163.45-2.003 1.577-2.003.75 0 1.125.548 1.193.735h.015V1.818h.473v5.628zm-1.606-.315c.84 0 1.133-.9 1.133-1.598s-.292-1.598-1.133-1.598c-.9 0-1.133.855-1.133 1.598 0 .744.23 1.6 1.132 1.6zM102.975 7.13c0 1.066-.48 1.937-1.793 1.937-.503 0-.96-.143-1.156-.203l.038-.473c.292.15.713.272 1.125.272 1.215 0 1.32-.886 1.32-1.966h-.015c-.255.555-.675.75-1.163.75-1.223 0-1.613-1.065-1.613-1.914 0-1.163.45-2.003 1.575-2.003.51 0 .84.066 1.193.524h.015V3.62h.473v3.51zm-1.636-.09c.854 0 1.162-.81 1.162-1.507 0-.923-.27-1.598-1.133-1.598-.9 0-1.134.855-1.134 1.598 0 .75.3 1.508 1.103 1.508zM107.267 7.326c-.33.135-.758.21-1.11.21-1.27 0-1.742-.855-1.742-2.003 0-1.17.646-2.003 1.613-2.003 1.08 0 1.523.87 1.523 1.898v.24h-2.618c0 .81.436 1.463 1.26 1.463.346 0 .85-.142 1.074-.284v.48zm-.233-2.063c0-.668-.27-1.328-.975-1.328-.7 0-1.127.698-1.127 1.328h2.1zM109.038 4.52c0-.293 0-.593-.03-.9h.458V4.3h.015c.158-.345.443-.773 1.24-.773.945 0 1.305.63 1.305 1.47v2.446h-.473V5.12c0-.72-.255-1.186-.908-1.186-.863 0-1.133.758-1.133 1.396v2.116h-.472V4.52zM115.29 3.53c1.237 0 1.785.96 1.785 2.002s-.548 2.003-1.786 2.003c-1.24 0-1.787-.96-1.787-2.003s.548-2.003 1.786-2.003zm0 3.6c.825 0 1.267-.712 1.267-1.598 0-.885-.442-1.598-1.268-1.598-.826 0-1.27.713-1.27 1.598 0 .886.443 1.6 1.27 1.6zM118.26 6.89c.285.144.63.24.998.24.45 0 .848-.247.848-.682 0-.908-1.838-.765-1.838-1.876 0-.758.615-1.043 1.246-1.043.203 0 .608.044.945.172l-.046.413c-.248-.113-.585-.18-.848-.18-.488 0-.826.15-.826.638 0 .713 1.884.623 1.884 1.876 0 .81-.758 1.087-1.336 1.087-.368 0-.735-.045-1.073-.18l.045-.466zM121.764 6.89c.285.144.63.24.998.24.45 0 .848-.247.848-.682 0-.908-1.838-.765-1.838-1.876 0-.758.615-1.043 1.246-1.043.203 0 .608.044.945.172l-.045.413c-.248-.113-.585-.18-.848-.18-.488 0-.826.15-.826.638 0 .713 1.884.623 1.884 1.876 0 .81-.758 1.087-1.336 1.087-.368 0-.735-.045-1.073-.18l.044-.466zM128.127 7.326c-.33.135-.758.21-1.11.21-1.27 0-1.742-.855-1.742-2.003 0-1.17.646-2.003 1.613-2.003 1.08 0 1.523.87 1.523 1.898v.24h-2.618c0 .81.436 1.463 1.26 1.463.346 0 .85-.142 1.074-.284v.48zm-.232-2.063c0-.668-.27-1.328-.975-1.328-.698 0-1.126.698-1.126 1.328h2.1zM129.898 4.52c0-.293 0-.593-.03-.9h.458V4.3h.015c.158-.345.443-.773 1.24-.773.945 0 1.305.63 1.305 1.47v2.446h-.473V5.12c0-.72-.255-1.186-.908-1.186-.863 0-1.133.758-1.133 1.396v2.116h-.472V4.52zM134.363 6.89c.285.144.63.24.998.24.45 0 .85-.247.85-.682 0-.908-1.84-.765-1.84-1.876 0-.758.616-1.043 1.247-1.043.203 0 .608.044.945.172l-.045.413c-.248-.113-.585-.18-.848-.18-.49 0-.827.15-.827.638 0 .713 1.884.623 1.884 1.876 0 .81-.758 1.087-1.336 1.087-.367 0-.734-.045-1.072-.18l.045-.466zM140.65 4.13c-.254-.113-.562-.196-.817-.196-.923 0-1.44.668-1.44 1.598 0 .87.524 1.6 1.387 1.6.3 0 .578-.07.863-.174l.045.443c-.323.113-.623.136-.983.136-1.23 0-1.83-.938-1.83-2.003 0-1.178.757-2.003 1.89-2.003.458 0 .788.105.923.15l-.037.45zM142.077 1.818h.473v2.446h.015c.203-.42.63-.735 1.193-.735 1.028 0 1.306.682 1.306 1.627v2.29h-.473V5.164c0-.66-.127-1.23-.907-1.23-.84 0-1.133.795-1.133 1.463v2.048h-.473V1.818zM149.032 6.83h-.015c-.21.46-.743.706-1.216.706-1.087 0-1.26-.735-1.26-1.08 0-1.284 1.366-1.344 2.356-1.344h.09v-.195c0-.653-.232-.983-.87-.983-.397 0-.772.09-1.126.315V3.79c.293-.143.788-.263 1.126-.263.945 0 1.343.427 1.343 1.425v1.688c0 .308 0 .54.037.803h-.466V6.83zm-.045-1.312h-.135c-.818 0-1.793.083-1.793.923 0 .503.358.69.794.69 1.11 0 1.133-.967 1.133-1.38v-.232zM151.493 4.024h-.772V3.62h.773V3.34c0-.803.03-1.613 1.014-1.613.15 0 .353.02.442.074l-.03.413c-.1-.053-.24-.083-.376-.083-.646 0-.578.698-.578 1.155v.33h.863v.404h-.864v3.422h-.473V4.024zM155.905 4.024h-.87V6.5c0 .346.128.63.51.63.18 0 .3-.037.436-.09l.03.39c-.11.046-.344.106-.577.106-.84 0-.87-.578-.87-1.275V4.025h-.75V3.62h.75v-.924l.473-.165v1.09h.87v.404zM33.61 13.144c-.33-.172-.802-.225-1.17-.225-1.358 0-2.124.96-2.124 2.258 0 1.32.743 2.258 2.124 2.258.345 0 .87-.045 1.17-.225l.03.45c-.284.174-.87.226-1.2.226-1.65 0-2.64-1.088-2.64-2.708 0-1.59 1.02-2.71 2.64-2.71.308 0 .93.054 1.2.196l-.03.48zM36.86 13.88c1.238 0 1.786.96 1.786 2.002s-.548 2.003-1.786 2.003-1.786-.96-1.786-2.003.55-2.003 1.786-2.003zm0 3.6c.826 0 1.268-.712 1.268-1.598 0-.885-.442-1.598-1.268-1.598-.825 0-1.268.713-1.268 1.598 0 .887.443 1.6 1.268 1.6zM40.125 14.87c0-.293 0-.593-.03-.9h.458v.682h.015c.157-.345.442-.773 1.238-.773.946 0 1.306.63 1.306 1.47v2.446h-.473V15.47c0-.72-.256-1.186-.91-1.186-.862 0-1.132.758-1.132 1.396v2.116h-.473V14.87zM45.205 14.375h-.773v-.405h.773v-.277c0-.803.03-1.613 1.013-1.613.15 0 .353.022.443.075l-.03.413c-.097-.053-.24-.083-.374-.083-.645 0-.578.698-.578 1.155v.33h.863v.405h-.862v3.422h-.473v-3.422zM50.532 17.676c-.33.135-.758.21-1.11.21-1.27 0-1.742-.855-1.742-2.003 0-1.17.646-2.003 1.613-2.003 1.08 0 1.523.87 1.523 1.898v.24h-2.62c0 .81.437 1.463 1.262 1.463.345 0 .848-.142 1.073-.284v.48zm-.233-2.063c0-.668-.27-1.328-.976-1.328-.698 0-1.126.698-1.126 1.328h2.1zm-.788-3.122h.593l-.945 1.082h-.345l.697-1.08zM55.334 17.796h-.473v-.608h-.014c-.255.488-.646.698-1.193.698-1.05 0-1.576-.87-1.576-2.003 0-1.163.45-2.003 1.576-2.003.75 0 1.125.548 1.193.735h.015V12.17h.474v5.626zm-1.605-.315c.84 0 1.132-.9 1.132-1.598s-.292-1.598-1.133-1.598c-.9 0-1.134.855-1.134 1.598 0 .744.232 1.6 1.133 1.6zM59.626 17.676c-.33.135-.758.21-1.11.21-1.27 0-1.742-.855-1.742-2.003 0-1.17.646-2.003 1.613-2.003 1.08 0 1.523.87 1.523 1.898v.24h-2.62c0 .81.437 1.463 1.262 1.463.345 0 .848-.142 1.073-.284v.48zm-.232-2.063c0-.668-.27-1.328-.975-1.328-.7 0-1.127.698-1.127 1.328h2.1zm-.788-3.122h.593l-.947 1.082h-.345l.698-1.08zM61.397 14.825c0-.42 0-.578-.03-.855h.473v.736h.015c.173-.428.496-.826.983-.826.112 0 .248.022.33.045v.496c-.098-.03-.225-.044-.345-.044-.75 0-.953.84-.953 1.53V17.8h-.473v-2.973zM66.68 17.18h-.015c-.21.46-.743.706-1.216.706-1.09 0-1.26-.735-1.26-1.08 0-1.284 1.365-1.344 2.355-1.344h.09v-.195c0-.653-.233-.983-.87-.983-.4 0-.774.09-1.126.315v-.46c.29-.142.787-.262 1.124-.262.945 0 1.343.428 1.343 1.426v1.688c0 .308 0 .54.038.803h-.465v-.614zm-.045-1.312H66.5c-.818 0-1.793.083-1.793.923 0 .503.36.69.795.69 1.11 0 1.133-.967 1.133-1.38v-.232zM70.47 14.375h-.872v2.477c0 .345.128.63.51.63.18 0 .3-.038.436-.09l.03.39c-.112.045-.345.105-.578.105-.84 0-.87-.578-.87-1.275v-2.236h-.75v-.405h.75v-.922l.472-.165v1.088h.87v.405zM72.375 12.95h-.473v-.63h.473v.63zm-.473 1.02h.473v3.826h-.473V13.97zM75.646 13.88c1.238 0 1.786.96 1.786 2.002s-.548 2.003-1.786 2.003-1.786-.96-1.786-2.003.55-2.003 1.786-2.003zm0 3.6c.826 0 1.268-.712 1.268-1.598 0-.885-.442-1.598-1.268-1.598-.825 0-1.268.713-1.268 1.598 0 .887.443 1.6 1.268 1.6zM78.91 14.87c0-.293 0-.593-.03-.9h.46v.682h.014c.157-.345.442-.773 1.238-.773.946 0 1.306.63 1.306 1.47v2.446h-.473V15.47c0-.72-.255-1.186-.908-1.186-.863 0-1.133.758-1.133 1.396v2.116h-.473V14.87zM85.972 17.24c.285.144.63.24.998.24.45 0 .848-.247.848-.682 0-.908-1.838-.765-1.838-1.876 0-.758.615-1.043 1.246-1.043.203 0 .608.044.945.17l-.044.414c-.248-.113-.585-.18-.848-.18-.488 0-.826.15-.826.638 0 .713 1.884.623 1.884 1.876 0 .81-.758 1.088-1.336 1.088-.368 0-.735-.045-1.073-.18l.045-.465zM92.755 16.896c0 .292 0 .593.03.9h-.458v-.683h-.015c-.158.345-.443.772-1.238.772-.945 0-1.306-.63-1.306-1.47v-2.447h.473v2.326c0 .72.256 1.186.91 1.186.862 0 1.132-.758 1.132-1.396v-2.116h.473v2.928zM95 12.95h-.474v-.63H95v.63zm-.474 1.02H95v3.826h-.474V13.97zM96.484 17.24c.285.144.63.24.998.24.45 0 .848-.247.848-.682 0-.908-1.838-.765-1.838-1.876 0-.758.615-1.043 1.246-1.043.203 0 .608.044.945.17l-.045.414c-.248-.113-.585-.18-.848-.18-.488 0-.826.15-.826.638 0 .713 1.883.623 1.883 1.876 0 .81-.758 1.088-1.335 1.088-.368 0-.735-.045-1.073-.18l.044-.465zM99.99 17.24c.284.144.63.24.997.24.45 0 .848-.247.848-.682 0-.908-1.838-.765-1.838-1.876 0-.758.615-1.043 1.246-1.043.203 0 .608.044.945.17l-.045.414c-.248-.113-.585-.18-.848-.18-.488 0-.826.15-.826.638 0 .713 1.883.623 1.883 1.876 0 .81-.758 1.088-1.336 1.088-.368 0-.735-.045-1.073-.18l.045-.465zM106.352 17.676c-.33.135-.758.21-1.11.21-1.27 0-1.742-.855-1.742-2.003 0-1.17.646-2.003 1.613-2.003 1.08 0 1.523.87 1.523 1.898v.24h-2.62c0 .81.437 1.463 1.262 1.463.345 0 .848-.142 1.073-.284v.48zm-.233-2.063c0-.668-.27-1.328-.976-1.328-.698 0-1.126.698-1.126 1.328h2.1zM33.61 23.494c-.33-.172-.802-.225-1.17-.225-1.358 0-2.124.96-2.124 2.258 0 1.32.743 2.258 2.124 2.258.345 0 .87-.045 1.17-.225l.03.45c-.284.174-.87.226-1.2.226-1.65 0-2.64-1.088-2.64-2.708 0-1.59 1.02-2.71 2.64-2.71.308 0 .93.053 1.2.196l-.03.48zM36.86 24.23c1.238 0 1.786.96 1.786 2.002s-.548 2.003-1.786 2.003-1.786-.96-1.786-2.003.55-2.003 1.786-2.003zm0 3.602c.826 0 1.268-.713 1.268-1.6 0-.884-.442-1.597-1.268-1.597-.825 0-1.268.713-1.268 1.598 0 .886.443 1.6 1.268 1.6zM40.125 25.22c0-.293 0-.593-.03-.9h.458V25h.015c.157-.345.442-.773 1.238-.773.946 0 1.306.63 1.306 1.47v2.446h-.473V25.82c0-.72-.256-1.186-.91-1.186-.862 0-1.132.758-1.132 1.396v2.116h-.473V25.22zM45.205 24.725h-.773v-.405h.773v-.277c0-.803.03-1.613 1.013-1.613.15 0 .353.022.443.075l-.03.413c-.097-.053-.24-.083-.374-.083-.645 0-.578.698-.578 1.155v.33h.863v.405h-.862v3.422h-.473v-3.422zM50.532 28.026c-.33.135-.758.21-1.11.21-1.27 0-1.742-.855-1.742-2.003 0-1.17.646-2.003 1.613-2.003 1.08 0 1.523.87 1.523 1.898v.24h-2.62c0 .81.437 1.463 1.262 1.463.345 0 .848-.142 1.073-.284v.48zm-.233-2.063c0-.668-.27-1.328-.976-1.328-.698 0-1.126.698-1.126 1.328h2.1zM55.334 28.146h-.473v-.608h-.014c-.255.488-.646.698-1.193.698-1.05 0-1.576-.87-1.576-2.003 0-1.163.45-2.003 1.576-2.003.75 0 1.125.548 1.193.735h.015V22.52h.474v5.626zm-1.605-.314c.84 0 1.132-.9 1.132-1.6s-.292-1.597-1.133-1.597c-.9 0-1.134.855-1.134 1.598 0 .743.232 1.6 1.133 1.6zM59.626 28.026c-.33.135-.758.21-1.11.21-1.27 0-1.742-.855-1.742-2.003 0-1.17.646-2.003 1.613-2.003 1.08 0 1.523.87 1.523 1.898v.24h-2.62c0 .81.437 1.463 1.262 1.463.345 0 .848-.142 1.073-.284v.48zm-.232-2.063c0-.668-.27-1.328-.975-1.328-.7 0-1.127.698-1.127 1.328h2.1zM61.397 25.175c0-.42 0-.578-.03-.855h.473v.735h.015c.173-.427.496-.825.983-.825.112 0 .248.022.33.045v.496c-.098-.03-.225-.044-.345-.044-.75 0-.953.84-.953 1.53v1.892h-.473v-2.973zM66.68 27.53h-.015c-.21.46-.743.706-1.216.706-1.09 0-1.26-.735-1.26-1.08 0-1.284 1.365-1.344 2.355-1.344h.09v-.195c0-.653-.233-.983-.87-.983-.4 0-.774.09-1.126.315v-.46c.29-.142.787-.262 1.124-.262.945 0 1.343.428 1.343 1.426v1.688c0 .308 0 .54.038.803h-.465v-.614zm-.045-1.312H66.5c-.818 0-1.793.083-1.793.923 0 .503.36.69.795.69 1.11 0 1.133-.967 1.133-1.38v-.232zM68.466 27.75l2.304-3.025h-2.214v-.405h2.76v.405l-2.302 3.017h2.303v.405h-2.85v-.398zM73.208 23.3h-.473v-.63h.473v.63zm-.473 1.02h.473v3.826h-.473V24.32zM76.48 24.23c1.237 0 1.785.96 1.785 2.002s-.548 2.003-1.786 2.003c-1.24 0-1.787-.96-1.787-2.003s.55-2.003 1.786-2.003zm0 3.602c.825 0 1.267-.713 1.267-1.6 0-.884-.442-1.597-1.268-1.597-.826 0-1.27.713-1.27 1.598 0 .886.444 1.6 1.27 1.6zM79.744 25.22c0-.293 0-.593-.03-.9h.458V25h.015c.157-.345.442-.773 1.238-.773.946 0 1.306.63 1.306 1.47v2.446h-.472V25.82c0-.72-.255-1.186-.908-1.186-.863 0-1.133.758-1.133 1.396v2.116h-.473V25.22zM87.067 28.026c-.33.135-.758.21-1.11.21-1.27 0-1.742-.855-1.742-2.003 0-1.17.646-2.003 1.613-2.003 1.08 0 1.523.87 1.523 1.898v.24h-2.618c0 .81.436 1.463 1.26 1.463.346 0 .85-.142 1.074-.284v.48zm-.233-2.063c0-.668-.27-1.328-.975-1.328-.7 0-1.127.698-1.127 1.328h2.1zM91.345 27.48c.308.194.667.307 1.155.307.646 0 1.178-.33 1.178-1.073 0-1.028-2.4-1.156-2.4-2.53 0-.84.734-1.365 1.658-1.365.255 0 .667.037 1.028.17l-.083.474c-.23-.128-.6-.195-.952-.195-.54 0-1.133.224-1.133.9 0 1.05 2.4 1.057 2.4 2.588 0 1.058-.907 1.478-1.717 1.478-.51 0-.908-.105-1.186-.225l.053-.53zM97.1 28.146h-.555l-1.298-3.827h.518l1.058 3.31h.015l1.11-3.31h.496L97.1 28.145zM100.16 23.3h-.472v-.63h.473v.63zm-.472 1.02h.473v3.826h-.472V24.32zM101.587 27.75l2.304-3.025h-2.213v-.405h2.76v.405l-2.302 3.017h2.303v.405h-2.85v-.398zM105.504 27.75l2.304-3.025h-2.214v-.405h2.76v.405l-2.302 3.017h2.303v.405h-2.85v-.398zM112.34 28.026c-.33.135-.76.21-1.112.21-1.268 0-1.74-.855-1.74-2.003 0-1.17.645-2.003 1.612-2.003 1.08 0 1.523.87 1.523 1.898v.24h-2.62c0 .81.437 1.463 1.262 1.463.345 0 .848-.142 1.073-.284v.48zm-.234-2.063c0-.668-.27-1.328-.975-1.328-.697 0-1.125.698-1.125 1.328h2.1zM114.11 25.175c0-.42 0-.578-.03-.855h.473v.735h.015c.173-.427.496-.825.983-.825.113 0 .25.022.33.045v.496c-.097-.03-.224-.044-.344-.044-.75 0-.953.84-.953 1.53v1.892h-.473v-2.973zM119.393 27.53h-.015c-.21.46-.743.706-1.216.706-1.088 0-1.26-.735-1.26-1.08 0-1.284 1.366-1.344 2.356-1.344h.09v-.195c0-.653-.233-.983-.87-.983-.4 0-.774.09-1.126.315v-.46c.292-.142.788-.262 1.125-.262.945 0 1.343.428 1.343 1.426v1.688c0 .308 0 .54.038.803h-.465v-.614zm-.045-1.312h-.135c-.818 0-1.793.083-1.793.923 0 .503.36.69.795.69 1.11 0 1.133-.967 1.133-1.38v-.232zM33.61 33.844c-.33-.172-.802-.225-1.17-.225-1.358 0-2.124.96-2.124 2.258 0 1.32.743 2.258 2.124 2.258.345 0 .87-.045 1.17-.225l.03.45c-.284.174-.87.226-1.2.226-1.65 0-2.64-1.088-2.64-2.708 0-1.59 1.02-2.71 2.64-2.71.308 0 .93.053 1.2.196l-.03.48zM36.86 34.58c1.238 0 1.786.96 1.786 2.002s-.548 2.003-1.786 2.003-1.786-.96-1.786-2.003.55-2.003 1.786-2.003zm0 3.6c.826 0 1.268-.712 1.268-1.598 0-.885-.442-1.598-1.268-1.598-.825 0-1.268.713-1.268 1.598 0 .886.443 1.6 1.268 1.6zM40.125 35.57c0-.293 0-.593-.03-.9h.458v.682h.015c.157-.345.442-.773 1.238-.773.946 0 1.306.63 1.306 1.47v2.446h-.473V36.17c0-.72-.256-1.186-.91-1.186-.862 0-1.132.758-1.132 1.396v2.116h-.473V35.57zM45.205 35.074h-.773v-.405h.773v-.278c0-.803.03-1.613 1.013-1.613.15 0 .353.02.443.074l-.03.413c-.097-.053-.24-.083-.374-.083-.645 0-.578.698-.578 1.155v.33h.863v.404h-.862v3.422h-.473v-3.422zM50.532 38.376c-.33.135-.758.21-1.11.21-1.27 0-1.742-.855-1.742-2.003 0-1.17.646-2.003 1.613-2.003 1.08 0 1.523.87 1.523 1.898v.24h-2.62c0 .81.437 1.463 1.262 1.463.345 0 .848-.142 1.073-.284v.48zm-.233-2.063c0-.668-.27-1.328-.976-1.328-.698 0-1.126.698-1.126 1.328h2.1zM55.334 38.496h-.473v-.608h-.014c-.255.488-.646.698-1.193.698-1.05 0-1.576-.87-1.576-2.003 0-1.163.45-2.003 1.576-2.003.75 0 1.125.548 1.193.735h.015V32.87h.474v5.626zm-1.605-.315c.84 0 1.132-.9 1.132-1.598s-.292-1.598-1.133-1.598c-.9 0-1.134.855-1.134 1.598 0 .744.232 1.6 1.133 1.6zM59.626 38.376c-.33.135-.758.21-1.11.21-1.27 0-1.742-.855-1.742-2.003 0-1.17.646-2.003 1.613-2.003 1.08 0 1.523.87 1.523 1.898v.24h-2.62c0 .81.437 1.463 1.262 1.463.345 0 .848-.142 1.073-.284v.48zm-.232-2.063c0-.668-.27-1.328-.975-1.328-.7 0-1.127.698-1.127 1.328h2.1zM61.397 35.524c0-.42 0-.578-.03-.855h.473v.734h.015c.173-.427.496-.825.983-.825.112 0 .248.02.33.044v.496c-.098-.03-.225-.045-.345-.045-.75 0-.953.84-.953 1.53v1.892h-.473v-2.973zM66.68 37.88h-.015c-.21.46-.743.706-1.216.706-1.09 0-1.26-.735-1.26-1.08 0-1.284 1.365-1.344 2.355-1.344h.09v-.195c0-.653-.233-.983-.87-.983-.4 0-.774.09-1.126.315v-.46c.29-.142.787-.262 1.124-.262.945 0 1.343.428 1.343 1.426v1.688c0 .308 0 .54.038.803h-.465v-.614zm-.045-1.313H66.5c-.818 0-1.793.083-1.793.923 0 .502.36.69.795.69 1.11 0 1.133-.968 1.133-1.38v-.233zM68.466 38.1l2.304-3.025h-2.214v-.405h2.76v.405l-2.302 3.017h2.303v.405h-2.85V38.1zM73.208 33.648h-.473v-.63h.473v.63zm-.473 1.02h.473v3.828h-.473V34.67zM77.973 37.596c0 .292 0 .593.03.9h-.458v-.683h-.015c-.158.345-.443.772-1.238.772-.945 0-1.306-.63-1.306-1.47v-2.447h.473v2.326c0 .72.254 1.186.907 1.186.863 0 1.133-.758 1.133-1.396v-2.116h.473v2.928zM79.744 35.57c0-.293 0-.593-.03-.9h.458v.682h.015c.157-.345.442-.773 1.238-.773.946 0 1.306.63 1.306 1.47v2.446h-.472V36.17c0-.72-.255-1.186-.908-1.186-.863 0-1.133.758-1.133 1.396v2.116h-.473V35.57zM86.805 37.94c.285.144.63.24.998.24.45 0 .848-.247.848-.682 0-.908-1.837-.765-1.837-1.876 0-.758.615-1.043 1.246-1.043.202 0 .607.044.944.172l-.045.413c-.25-.113-.586-.18-.85-.18-.487 0-.825.15-.825.638 0 .713 1.883.623 1.883 1.876 0 .81-.758 1.087-1.335 1.087-.368 0-.735-.045-1.073-.18l.045-.466zM91.93 38.496h-.555l-1.298-3.827h.518l1.058 3.31h.015l1.11-3.31h.496l-1.344 3.826zM94.99 33.648h-.472v-.63h.473v.63zm-.47 1.02h.472v3.828h-.473V34.67zM96.417 38.1l2.304-3.025h-2.213v-.405h2.76v.405l-2.302 3.017h2.303v.405h-2.85V38.1zM100.686 35.524c0-.42 0-.578-.03-.855h.473v.734h.014c.173-.427.496-.825.983-.825.112 0 .248.02.33.044v.496c-.098-.03-.225-.045-.345-.045-.75 0-.953.84-.953 1.53v1.892h-.474v-2.973zM105.97 37.88h-.016c-.21.46-.743.706-1.216.706-1.088 0-1.26-.735-1.26-1.08 0-1.284 1.366-1.344 2.356-1.344h.09v-.195c0-.653-.233-.983-.87-.983-.4 0-.774.09-1.126.315v-.46c.292-.142.788-.262 1.125-.262.945 0 1.343.428 1.343 1.426v1.688c0 .308 0 .54.038.803h-.465v-.614zm-.046-1.313h-.135c-.82 0-1.794.083-1.794.923 0 .502.36.69.795.69 1.11 0 1.134-.968 1.134-1.38v-.233z"/><g><path fill="#E2001A" d="M21.286 1.98S17.316.24 10.673.24h-.002C4.027.24.058 1.98.058 1.98s-.355 7.695 1.15 12.047c2.662 7.65 9.463 9.8 9.463 9.8h.004s6.8-2.148 9.462-9.8c1.507-4.352 1.15-12.048 1.15-12.048z"/></g><path fill="#FFF" d="M17.726 8.613v4.24h-4.948v4.948h-4.24v-4.946H3.59v-4.24H8.54V3.666h4.24v4.946"/></svg>