<svg xmlns="http://www.w3.org/2000/svg" width="199.626" height="55.299" viewBox="0 0 199.626 55.299">
  <path fill="#82939C" stroke="#191C1B" stroke-width=".6" d="M5.159 53.428V5.152h107.792v11.123h84.813v37.153z"/>
  <path d="M15.843 11c2.758 0 4.198 1.643 4.198 4.33 0 2.663-1.463 4.33-4.198 4.33s-4.198-1.667-4.198-4.33c.001-2.687 1.439-4.33 4.198-4.33zm-2.218-2.027h1.727V10.7h-1.727V8.973zm2.218 9.03c1.355 0 1.895-1.295 1.895-2.674 0-1.451-.54-2.675-1.895-2.675s-1.895 1.224-1.895 2.675c0 1.379.54 2.674 1.895 2.674zm.516-9.03h1.727V10.7h-1.727V8.973zm4.934 2.17h3.982c1.487 0 2.698.672 2.698 2.111 0 1.116-.528 1.859-1.607 2.111v.024c.719.192.768.828 1.187 1.847l.816 2.279h-2.327l-.48-1.511c-.456-1.439-.744-1.799-1.571-1.799h-.468v3.31h-2.23v-8.372zm2.231 3.478h.588c.72 0 1.631-.024 1.631-.971 0-.78-.779-.923-1.631-.923h-.588v1.894zm5.833-3.478h5.9v1.583h-3.67v1.727h3.466v1.583h-3.466v1.895h3.802v1.583h-6.033v-8.371zm7.392 0h3.85c1.559 0 2.723.684 2.723 2.123 0 1.055-.54 1.643-1.475 1.955v.024c1.115.228 1.691.828 1.691 1.847 0 2.003-1.763 2.423-3.262 2.423H36.75v-8.372zm2.23 3.311h.624c.731 0 1.487-.18 1.487-.888 0-.768-.719-.839-1.463-.839h-.648v1.727zm0 3.478h.66c.816 0 1.667-.12 1.667-.972 0-.912-.876-.995-1.644-.995h-.684v1.967zm5.486-2.935h3.25v1.583h-3.25v-1.583zm4.464-3.854h2.23v3.418h.024l2.519-3.418h2.687l-3.094 3.898 3.334 4.474h-2.843l-2.603-3.802h-.023v3.802h-2.23v-8.372zm12.705 8.372c-.012-.336-.048-.66-.048-.983h-.024c-.492.779-1.091 1.127-1.979 1.127-1.235 0-2.339-.612-2.339-1.967 0-1.907 2.075-2.135 3.227-2.135.348 0 .731.036 1.007.084-.012-.852-.647-1.079-1.427-1.079-.696 0-1.391.132-1.991.468l-.036-1.463c.768-.312 1.571-.444 2.495-.444 1.595 0 2.974.684 2.974 2.591v2.327c0 .492.024.983.12 1.475h-1.979zm-1.487-1.296c.815 0 1.331-.744 1.331-1.475-.276-.012-.588-.036-.912-.036-.731 0-1.307.228-1.307.828.001.431.385.683.888.683zm4.238-4.953h1.271v-1.403l2.123-.66v2.063h1.511v1.511h-1.511v2.303c0 .755.18 1.139.863 1.139.216 0 .444-.048.66-.084l.072 1.403c-.408.048-.816.12-1.355.12-1.931 0-2.398-.852-2.398-2.339v-2.542h-1.235v-1.511zm10.029 6.249c-.012-.336-.048-.66-.048-.983h-.024c-.492.779-1.091 1.127-1.979 1.127-1.235 0-2.339-.612-2.339-1.967 0-1.907 2.075-2.135 3.227-2.135.348 0 .731.036 1.007.084-.012-.852-.647-1.079-1.427-1.079-.696 0-1.391.132-1.991.468l-.036-1.463c.768-.312 1.571-.444 2.495-.444 1.595 0 2.975.684 2.975 2.591v2.327c0 .492.024.983.12 1.475h-1.98zm-1.487-1.296c.815 0 1.331-.744 1.331-1.475-.276-.012-.588-.036-.912-.036-.731 0-1.307.228-1.307.828.001.431.384.683.888.683zm4.67-.431c.504.216 1.247.432 2.027.432.444 0 .875-.072.875-.503 0-1.056-3.07-.312-3.07-2.567 0-1.439 1.415-2.027 2.663-2.027.744 0 1.499.084 2.195.36l-.168 1.499c-.456-.276-1.14-.419-1.679-.419-.468 0-.996.084-.996.432 0 .972 3.214.204 3.214 2.579 0 1.667-1.499 2.087-2.914 2.087-.972 0-1.631-.096-2.267-.3l.12-1.573zm5.628-4.522h1.271v-1.403l2.123-.66v2.063h1.511v1.511h-1.511v2.303c0 .755.18 1.139.863 1.139.216 0 .444-.048.66-.084l.072 1.403c-.408.048-.816.12-1.355.12-1.931 0-2.398-.852-2.398-2.339v-2.542h-1.235v-1.511zm7.822 3.754c.12.864.779 1.199 1.835 1.199.587 0 1.259-.132 1.907-.479v1.523c-.695.276-1.487.396-2.291.396-2.063 0-3.634-1.211-3.634-3.274s1.403-3.262 3.346-3.262c2.315 0 3.154 1.643 3.154 3.502v.396h-4.317zm2.375-1.223c0-.72-.336-1.308-1.199-1.308-.78 0-1.151.588-1.199 1.308h2.398zm7.596-.804c-.24-.072-.48-.072-.732-.072-1.007 0-1.571.731-1.571 1.955v2.639h-2.159v-6.249h1.967v1.151h.024c.372-.792.912-1.295 1.847-1.295.252 0 .516.036.732.072l-.108 1.799zm-88.701 9.15h.828v3.754l3.766-3.754h1.08l-4.054 3.946 4.402 4.426h-1.14l-4.054-4.186v4.186h-.828v-8.372zm10.894 7.388h-.024c-.336.731-1.188 1.127-1.943 1.127-1.739 0-2.015-1.175-2.015-1.727 0-2.051 2.183-2.147 3.766-2.147h.144v-.312c0-1.043-.372-1.571-1.391-1.571-.636 0-1.235.144-1.799.503v-.731c.468-.228 1.259-.42 1.799-.42 1.511 0 2.146.684 2.146 2.279v2.699c0 .491 0 .863.06 1.283h-.744v-.983zm-.072-2.099h-.216c-1.308 0-2.867.133-2.867 1.477 0 .803.576 1.103 1.271 1.103 1.775 0 1.811-1.547 1.811-2.206v-.374zm5.437-2.386h-1.391v3.958c0 .551.204 1.007.815 1.007.288 0 .48-.06.696-.144l.048.623c-.18.072-.552.168-.923.168-1.343 0-1.392-.924-1.392-2.039v-3.573H25.23v-.648h1.199v-1.475l.756-.264v1.739h1.391v.648zm5.111 4.485h-.024c-.336.731-1.188 1.127-1.943 1.127-1.739 0-2.015-1.175-2.015-1.727 0-2.051 2.183-2.147 3.766-2.147h.144v-.312c0-1.043-.372-1.571-1.391-1.571-.636 0-1.235.144-1.799.503v-.731c.468-.228 1.259-.42 1.799-.42 1.511 0 2.146.684 2.146 2.279v2.699c0 .491 0 .863.06 1.283h-.744v-.983zm-.072-2.099h-.216c-1.308 0-2.867.133-2.867 1.477 0 .803.576 1.103 1.271 1.103 1.775 0 1.811-1.547 1.811-2.206v-.374zm2.33 2.195c.456.229 1.007.384 1.595.384.72 0 1.355-.396 1.355-1.091 0-1.451-2.938-1.224-2.938-2.999 0-1.211.983-1.667 1.991-1.667.324 0 .972.072 1.511.276l-.072.66c-.396-.18-.936-.288-1.355-.288-.779 0-1.319.24-1.319 1.02 0 1.139 3.01.995 3.01 2.999 0 1.295-1.211 1.738-2.135 1.738-.588 0-1.176-.072-1.715-.287l.072-.745zm8.014-4.581h-1.391v3.958c0 .551.204 1.007.815 1.007.288 0 .48-.06.696-.144l.048.623c-.18.072-.552.168-.923.168-1.343 0-1.392-.924-1.392-2.039v-3.573h-1.199v-.648h1.199v-1.475l.756-.264v1.739h1.391v.648zm5.7 5.276c-.528.217-1.211.336-1.775.336-2.027 0-2.783-1.367-2.783-3.201 0-1.872 1.031-3.203 2.579-3.203 1.727 0 2.435 1.392 2.435 3.035v.383h-4.186c0 1.295.695 2.339 2.015 2.339.552 0 1.355-.228 1.715-.456v.767zm-.372-3.298c0-1.067-.432-2.123-1.559-2.123-1.115 0-1.799 1.115-1.799 2.123h3.358zm2.509-1.259c0-.671 0-.923-.048-1.367h.756v1.175h.024c.276-.684.792-1.319 1.571-1.319.18 0 .396.036.528.072v.792c-.156-.048-.36-.072-.552-.072-1.199 0-1.523 1.343-1.523 2.446v3.022h-.756v-4.749zm11.943 4.75h-.756v-.972h-.024c-.408.779-1.031 1.115-1.907 1.115-1.679 0-2.519-1.391-2.519-3.201 0-1.86.719-3.203 2.519-3.203 1.199 0 1.799.875 1.907 1.176h.024v-3.91h.756v8.995zm-2.567-.504c1.343 0 1.811-1.438 1.811-2.554 0-1.116-.468-2.555-1.811-2.555-1.439 0-1.811 1.367-1.811 2.555 0 1.187.372 2.554 1.811 2.554zm8.735.311c-.528.217-1.211.336-1.775.336-2.027 0-2.783-1.367-2.783-3.201 0-1.872 1.031-3.203 2.579-3.203 1.727 0 2.435 1.392 2.435 3.035v.383h-4.186c0 1.295.696 2.339 2.015 2.339.552 0 1.355-.228 1.715-.456v.767zm-.372-3.298c0-1.067-.432-2.123-1.559-2.123-1.115 0-1.799 1.115-1.799 2.123h3.358zm2.51-1.259c0-.671 0-.923-.048-1.367h.756v1.175h.024c.276-.684.792-1.319 1.571-1.319.18 0 .396.036.528.072v.792c-.156-.048-.36-.072-.552-.072-1.199 0-1.523 1.343-1.523 2.446v3.022h-.756v-4.749zm9.484-1.511c1.979 0 2.854 1.535 2.854 3.203 0 1.666-.875 3.201-2.854 3.201s-2.854-1.535-2.854-3.201c0-1.668.875-3.203 2.854-3.203zm0 5.757c1.319 0 2.027-1.14 2.027-2.554 0-1.416-.708-2.555-2.027-2.555-1.319 0-2.027 1.139-2.027 2.555 0 1.414.708 2.554 2.027 2.554zm-1.475-7.64h.899v1.007h-.899v-1.007zm2.05 0h.9v1.007h-.9v-1.007zm4.466 2.675h-1.235v-.648h1.235v-.444c0-1.283.048-2.579 1.619-2.579.24 0 .563.036.708.12l-.048.66c-.156-.084-.384-.132-.6-.132-1.031 0-.923 1.115-.923 1.847v.528h1.379v.648h-1.379v5.469h-.756v-5.469zm4.022 0h-1.235v-.648h1.235v-.444c0-1.283.048-2.579 1.619-2.579.24 0 .563.036.708.12l-.048.66c-.156-.084-.384-.132-.6-.132-1.031 0-.923 1.115-.923 1.847v.528h1.379v.648h-1.379v5.469h-.755v-5.469zm7.822 5.276c-.528.217-1.211.336-1.775.336-2.027 0-2.783-1.367-2.783-3.201 0-1.872 1.031-3.203 2.579-3.203 1.727 0 2.435 1.392 2.435 3.035v.383h-4.186c0 1.295.696 2.339 2.015 2.339.552 0 1.355-.228 1.715-.456v.767zm-.372-3.298c0-1.067-.432-2.123-1.559-2.123-1.115 0-1.799 1.115-1.799 2.123h3.358zm2.51-1.187c0-.468 0-.948-.048-1.439h.731v1.091h.024c.251-.552.708-1.235 1.979-1.235 1.511 0 2.087 1.008 2.087 2.351v3.91h-.756v-3.718c0-1.151-.407-1.895-1.451-1.895-1.379 0-1.811 1.211-1.811 2.231v3.382h-.756v-4.678zm9.551-.791h-1.391v3.958c0 .551.203 1.007.814 1.007.289 0 .48-.06.696-.144l.048.623c-.18.072-.552.168-.924.168-1.343 0-1.391-.924-1.391-2.039v-3.573h-1.199v-.648h1.199v-1.475l.756-.264v1.739h1.391v.648zm1.597-3.526h.756v8.995h-.756V23.52zm3.659 1.247h-.756v-1.008h.756v1.008zm-.755 1.631h.756v6.117h-.756v-6.117zm6.885.815c-.408-.18-.899-.312-1.307-.312-1.476 0-2.303 1.067-2.303 2.555 0 1.391.839 2.554 2.219 2.554.479 0 .923-.108 1.379-.276l.072.709c-.516.18-.996.215-1.572.215-1.967 0-2.926-1.499-2.926-3.201 0-1.884 1.211-3.203 3.022-3.203.731 0 1.259.168 1.476.24l-.06.719zm1.586-3.693h.756v3.91h.023c.324-.672 1.008-1.176 1.907-1.176 1.644 0 2.087 1.092 2.087 2.603v3.658h-.756v-3.646c0-1.055-.203-1.967-1.451-1.967-1.343 0-1.811 1.271-1.811 2.338v3.274h-.756V23.52zm6.456 5.349h3.011v.828h-3.011v-.828zm4.693-1.104c0-.671 0-.923-.049-1.367h.756v1.175h.024c.276-.684.792-1.319 1.571-1.319.18 0 .396.036.527.072v.792c-.156-.048-.359-.072-.552-.072-1.199 0-1.522 1.343-1.522 2.446v3.022h-.756v-4.749zm8.123 4.557c-.527.217-1.211.336-1.774.336-2.027 0-2.782-1.367-2.782-3.201 0-1.872 1.031-3.203 2.578-3.203 1.727 0 2.435 1.392 2.435 3.035v.383h-4.186c0 1.295.695 2.339 2.015 2.339.552 0 1.355-.228 1.715-.456v.767zm-.371-3.298c0-1.067-.432-2.123-1.56-2.123-1.115 0-1.799 1.115-1.799 2.123h3.359zm6.491-1.811c-.407-.18-.899-.312-1.308-.312-1.475 0-2.303 1.067-2.303 2.555 0 1.391.84 2.554 2.219 2.554.48 0 .924-.108 1.38-.276l.071.709c-.516.18-.995.215-1.57.215-1.967 0-2.927-1.499-2.927-3.201 0-1.884 1.212-3.203 3.022-3.203.731 0 1.26.168 1.475.24l-.059.719zm1.586-3.693h.756v3.91h.024c.323-.672 1.007-1.176 1.906-1.176 1.644 0 2.087 1.092 2.087 2.603v3.658h-.755v-3.646c0-1.055-.205-1.967-1.451-1.967-1.344 0-1.812 1.271-1.812 2.338v3.274h-.756V23.52zm9.551 3.526h-1.392v3.958c0 .551.204 1.007.816 1.007.287 0 .479-.06.695-.144l.048.623c-.18.072-.552.168-.923.168-1.344 0-1.392-.924-1.392-2.039v-3.573h-1.2v-.648h1.2v-1.475l.755-.264v1.739h1.392v.648zm1.596-3.526h.756v8.995h-.756V23.52zm3.66 1.247h-.756v-1.008h.756v1.008zm-.756 1.631h.756v6.117h-.756v-6.117zm6.886.815c-.407-.18-.899-.312-1.308-.312-1.475 0-2.303 1.067-2.303 2.555 0 1.391.84 2.554 2.219 2.554.48 0 .924-.108 1.38-.276l.071.709c-.516.18-.995.215-1.57.215-1.967 0-2.927-1.499-2.927-3.201 0-1.884 1.212-3.203 3.022-3.203.731 0 1.26.168 1.475.24l-.059.719zm1.586-3.693h.756v3.91h.024c.323-.672 1.007-1.176 1.906-1.176 1.644 0 2.087 1.092 2.087 2.603v3.658h-.755v-3.646c0-1.055-.205-1.967-1.451-1.967-1.344 0-1.812 1.271-1.812 2.338v3.274h-.756V23.52zm11.014 8.802c-.528.217-1.212.336-1.774.336-2.027 0-2.783-1.367-2.783-3.201 0-1.872 1.031-3.203 2.578-3.203 1.728 0 2.436 1.392 2.436 3.035v.383h-4.186c0 1.295.695 2.339 2.014 2.339.553 0 1.355-.228 1.716-.456v.767zm-.372-3.298c0-1.067-.432-2.123-1.559-2.123-1.115 0-1.799 1.115-1.799 2.123h3.358zm2.51-1.187c0-.468 0-.948-.047-1.439h.731v1.091h.024c.251-.552.707-1.235 1.979-1.235 1.511 0 2.086 1.008 2.086 2.351v3.91h-.755v-3.718c0-1.151-.407-1.895-1.451-1.895-1.38 0-1.812 1.211-1.812 2.231v3.382h-.756v-4.678zM12.209 37.143h4.102v.721h-3.274v2.986h3.106v.719h-3.106v3.227h3.418v.72h-4.246v-8.373zm6.912.625h-.756V36.76h.756v1.008zm-.756 1.63h.756v6.116h-.756v-6.116zm7.749 5.613c0 1.703-.768 3.095-2.867 3.095-.803 0-1.535-.229-1.847-.324l.06-.756c.468.24 1.14.432 1.799.432 1.943 0 2.111-1.414 2.111-3.142h-.024c-.408.888-1.08 1.199-1.859 1.199-1.955 0-2.578-1.703-2.578-3.058 0-1.859.719-3.203 2.519-3.203.815 0 1.343.107 1.907.84h.024v-.695h.756v5.612zm-2.614-.144c1.367 0 1.859-1.295 1.859-2.41 0-1.477-.432-2.555-1.811-2.555-1.439 0-1.811 1.367-1.811 2.555-.001 1.199.479 2.41 1.763 2.41zm8.783.455c-.528.217-1.211.336-1.775.336-2.027 0-2.783-1.367-2.783-3.201 0-1.871 1.031-3.203 2.579-3.203 1.727 0 2.435 1.392 2.435 3.035v.383h-4.186c0 1.295.695 2.339 2.015 2.339.552 0 1.355-.228 1.715-.456v.767zm-.372-3.298c0-1.067-.432-2.122-1.559-2.122-1.115 0-1.799 1.115-1.799 2.122h3.358zm2.51-1.186c0-.469 0-.948-.048-1.439h.731v1.091h.024c.251-.552.708-1.235 1.979-1.235 1.511 0 2.087 1.008 2.087 2.352v3.909h-.755v-3.718c0-1.151-.408-1.895-1.451-1.895-1.379 0-1.811 1.211-1.811 2.23v3.382h-.756v-4.677zm9.55-.792H42.58v3.958c0 .551.204 1.007.815 1.007.288 0 .48-.06.696-.144l.048.623c-.18.072-.552.168-.923.168-1.343 0-1.392-.924-1.392-2.039v-3.573h-1.199v-.647h1.199v-1.476l.756-.264v1.739h1.391v.648zm6.371 4.029c0 .468 0 .948.048 1.439h-.732v-1.091h-.024c-.252.551-.708 1.234-1.979 1.234-1.511 0-2.087-1.007-2.087-2.351v-3.909h.756v3.718c0 1.151.408 1.895 1.451 1.895 1.379 0 1.811-1.211 1.811-2.23v-3.382h.755v4.677zm9.527 1.44V41.45c0-.863-.324-1.547-1.295-1.547-.828 0-1.643.707-1.643 2.23v3.382h-.755V41.45c0-.863-.324-1.547-1.295-1.547-.828 0-1.643.707-1.643 2.23v3.382h-.758v-4.677c0-.469 0-.948-.048-1.439h.731v1.031l.024.012c.24-.42.6-1.188 1.907-1.188.54 0 1.427.229 1.619 1.295h.024c.276-.719.996-1.295 1.955-1.295 1.235 0 1.931.863 1.931 2.051v4.21h-.754zm2.38-.888c.456.229 1.007.384 1.595.384.72 0 1.355-.396 1.355-1.091 0-1.451-2.938-1.224-2.938-2.998 0-1.212.983-1.668 1.991-1.668.324 0 .972.072 1.511.275l-.072.66c-.396-.18-.936-.287-1.355-.287-.779 0-1.319.239-1.319 1.02 0 1.139 3.01.994 3.01 2.998 0 1.295-1.211 1.738-2.135 1.738-.588 0-1.176-.072-1.715-.287l.072-.744zm5.304-8.107h.756v3.91h.024c.108-.301.708-1.176 1.907-1.176 1.799 0 2.519 1.344 2.519 3.203 0 1.811-.839 3.201-2.519 3.201-.875 0-1.499-.336-1.907-1.115h-.024v.972h-.756V36.52zm2.566 3.382c-1.379 0-1.811 1.438-1.811 2.555 0 1.115.467 2.554 1.811 2.554 1.439 0 1.811-1.367 1.811-2.554 0-1.187-.371-2.555-1.811-2.555zm8.52 5.42c-.528.217-1.211.336-1.775.336-2.027 0-2.783-1.367-2.783-3.201 0-1.871 1.031-3.203 2.579-3.203 1.727 0 2.435 1.392 2.435 3.035v.383h-4.186c0 1.295.696 2.339 2.015 2.339.552 0 1.355-.228 1.715-.456v.767zm-.372-3.298c0-1.067-.432-2.122-1.559-2.122-1.115 0-1.799 1.115-1.799 2.122h3.358zm2.042 2.603c.456.229 1.008.384 1.595.384.72 0 1.355-.396 1.355-1.091 0-1.451-2.938-1.224-2.938-2.998 0-1.212.983-1.668 1.991-1.668.324 0 .972.072 1.511.275l-.072.66c-.396-.18-.936-.287-1.355-.287-.779 0-1.319.239-1.319 1.02 0 1.139 3.011.994 3.011 2.998 0 1.295-1.211 1.738-2.135 1.738-.588 0-1.176-.072-1.715-.287l.071-.744zm9.357-4.414c-.408-.18-.899-.311-1.307-.311-1.475 0-2.303 1.066-2.303 2.555 0 1.391.839 2.554 2.219 2.554.479 0 .923-.108 1.379-.276l.072.709c-.516.18-.996.215-1.571.215-1.967 0-2.926-1.499-2.926-3.201 0-1.884 1.211-3.203 3.022-3.203.731 0 1.259.168 1.475.24l-.06.718zm1.586-3.693h.756v3.91h.024c.324-.672 1.007-1.176 1.907-1.176 1.644 0 2.087 1.092 2.087 2.603v3.658h-.756v-3.646c0-1.056-.204-1.967-1.451-1.967-1.343 0-1.811 1.271-1.811 2.338v3.274h-.756V36.52zm6.912 4.246c0-.672 0-.924-.048-1.367h.756v1.175h.024c.276-.684.792-1.319 1.571-1.319.18 0 .396.036.528.072v.791c-.156-.047-.36-.071-.552-.071-1.199 0-1.523 1.343-1.523 2.446v3.022h-.756v-4.749zm7.75 3.765h-.024c-.336.731-1.188 1.127-1.942 1.127-1.739 0-2.015-1.175-2.015-1.727 0-2.051 2.183-2.146 3.766-2.146h.145v-.313c0-1.043-.373-1.57-1.392-1.57-.636 0-1.235.144-1.8.503v-.731c.469-.229 1.26-.42 1.8-.42 1.511 0 2.146.684 2.146 2.279v2.698c0 .491 0 .863.06 1.283h-.743v-.983zm-.071-2.099h-.217c-1.307 0-2.866.133-2.866 1.477 0 .803.575 1.103 1.271 1.103 1.774 0 1.812-1.547 1.812-2.206v-.374zm-2.867-5.061h.9v1.008h-.9v-1.008zm2.05 0h.9v1.008h-.9v-1.008zm3.614 3.467c0-.469 0-.948-.047-1.439h.731v1.091h.024c.251-.552.707-1.235 1.979-1.235 1.511 0 2.086 1.008 2.086 2.352v3.909h-.755v-3.718c0-1.151-.407-1.895-1.451-1.895-1.38 0-1.812 1.211-1.812 2.23v3.382h-.756v-4.677zm6.912-4.318h.756v5.385l2.734-2.506h.972l-2.986 2.71 3.347 3.406h-1.044l-3.022-3.142v3.142h-.756V36.52zm11.013 7.555c0 .468 0 .948.049 1.439h-.732v-1.091h-.023c-.252.551-.708 1.234-1.979 1.234-1.511 0-2.087-1.007-2.087-2.351v-3.909h.756v3.718c0 1.151.408 1.895 1.451 1.895 1.379 0 1.811-1.211 1.811-2.23v-3.382h.756v4.677zm2.139-3.237c0-.469 0-.948-.048-1.439h.731v1.091h.024c.251-.552.708-1.235 1.979-1.235 1.511 0 2.087 1.008 2.087 2.352v3.909h-.756v-3.718c0-1.151-.407-1.895-1.451-1.895-1.379 0-1.811 1.211-1.811 2.23v3.382h-.756v-4.677zm11.758 4.173c0 1.703-.768 3.095-2.867 3.095-.803 0-1.535-.229-1.847-.324l.06-.756c.468.24 1.14.432 1.799.432 1.943 0 2.111-1.414 2.111-3.142h-.023c-.408.888-1.08 1.199-1.859 1.199-1.955 0-2.578-1.703-2.578-3.058 0-1.859.719-3.203 2.518-3.203.816 0 1.344.107 1.907.84h.024v-.695h.756v5.612zm-2.615-.144c1.367 0 1.859-1.295 1.859-2.41 0-1.477-.432-2.555-1.812-2.555-1.438 0-1.812 1.367-1.812 2.555.001 1.199.481 2.41 1.765 2.41zm8.783.455c-.527.217-1.211.336-1.775.336-2.026 0-2.782-1.367-2.782-3.201 0-1.871 1.031-3.203 2.579-3.203 1.727 0 2.434 1.392 2.434 3.035v.383H142.9c0 1.295.696 2.339 2.016 2.339.551 0 1.355-.228 1.715-.456v.767zm-.372-3.298c0-1.067-.432-2.122-1.56-2.122-1.115 0-1.799 1.115-1.799 2.122h3.359zm2.51-1.186c0-.469 0-.948-.048-1.439h.731v1.091h.024c.252-.552.707-1.235 1.979-1.235 1.512 0 2.087 1.008 2.087 2.352v3.909h-.755v-3.718c0-1.151-.408-1.895-1.451-1.895-1.38 0-1.812 1.211-1.812 2.23v3.382h-.756v-4.677z" fill="#FFF"/>
  <circle fill="#FFF" cx="5.162" cy="5.162" r="4.491"/>
  <path fill="#E2001A" d="M5.159 0C8.01 0 10.32 2.311 10.32 5.162c0 2.849-2.311 5.158-5.161 5.158C2.311 10.32 0 8.011 0 5.162 0 2.311 2.311 0 5.159 0zm0 9.246c2.274 0 4.084-1.812 4.084-4.084 0-2.271-1.81-4.084-4.084-4.084-2.271 0-4.081 1.813-4.081 4.084 0 2.273 1.811 4.084 4.081 4.084zm0-6.779c1.504 0 2.7 1.193 2.7 2.695s-1.196 2.695-2.7 2.695c-1.5 0-2.693-1.193-2.693-2.695s1.193-2.695 2.693-2.695z"/>
  <circle fill="#FFF" stroke="#000" stroke-width=".6" cx="5.159" cy="53.427" r="1.872"/>
  <circle fill="#FFF" stroke="#000" stroke-width=".6" cx="197.754" cy="53.427" r="1.872"/>
  <circle fill="#FFF" stroke="#000" stroke-width=".6" cx="112.952" cy="16.273" r="1.872"/>
  <circle fill="#FFF" stroke="#000" stroke-width=".6" cx="197.754" cy="16.273" r="1.872"/>
  <circle fill="#FFF" stroke="#000" stroke-width=".6" cx="112.952" cy="5.152" r="1.872"/>
</svg>
